HIERARCHY
ROOT hips_dup
{
	OFFSET 109.916466 107.186729 -0.991964
	CHANNELS 6 Xposition Yposition Zposition Zrotation Yrotation Xrotation
	JOINT l_hip_dup
	{
		OFFSET 0.100000 0.000000 0.000000
		CHANNELS 3 Zrotation Yrotation Xrotation
		JOINT l_thigh_dup
		{
			OFFSET 12.325401 -0.000000 -0.000000
			CHANNELS 3 Zrotation Yrotation Xrotation
			JOINT l_knee_dup
			{
				OFFSET 2.775702 -52.963534 0.000001
				CHANNELS 3 Zrotation Yrotation Xrotation
				JOINT l_foot_dup
				{
					OFFSET 2.443170 -46.618434 0.000001
					CHANNELS 3 Zrotation Yrotation Xrotation
					JOINT l_toes_dup
					{
						OFFSET 0.311175 -5.937580 12.750666
						CHANNELS 3 Zrotation Yrotation Xrotation
						End l_toes_End_dup
						{
							OFFSET 0.044636 -0.851711 9.748467
						}
					}
				}
			}
		}
	}
	JOINT r_hip_dup
	{
		OFFSET 0.100000 0.000000 0.000000
		CHANNELS 3 Zrotation Yrotation Xrotation
		JOINT r_thigh_dup
		{
			OFFSET -12.325401 -0.000000 -0.000000
			CHANNELS 3 Zrotation Yrotation Xrotation
			JOINT r_knee_dup
			{
				OFFSET -2.773568 -52.922791 -0.000001
				CHANNELS 3 Zrotation Yrotation Xrotation
				JOINT r_foot_dup
				{
					OFFSET -2.436255 -46.486506 -0.000001
					CHANNELS 3 Zrotation Yrotation Xrotation
					JOINT r_toes_dup
					{
						OFFSET -0.340057 -6.488683 13.934130
						CHANNELS 3 Zrotation Yrotation Xrotation
						End r_toes_End_dup
						{
							OFFSET -0.046094 -0.879518 10.066734
						}
					}
				}
			}
		}
	}
	JOINT spine1_dup
	{
		OFFSET 0.100000 -0.000000 0.000000
		CHANNELS 3 Zrotation Yrotation Xrotation
		JOINT spine2_dup
		{
			OFFSET -0.000000 14.215645 0.000000
			CHANNELS 3 Zrotation Yrotation Xrotation
			JOINT spine3_dup
			{
				OFFSET -0.435970 23.745094 -0.905567
				CHANNELS 3 Zrotation Yrotation Xrotation
				JOINT neck_dup
				{
					OFFSET -0.218957 18.933075 -0.472811
					CHANNELS 3 Zrotation Yrotation Xrotation
					JOINT head_dup
					{
						OFFSET 0.331457 12.008331 0.226232
						CHANNELS 3 Zrotation Yrotation Xrotation
						End head_End_dup
						{
							OFFSET 0.538358 11.858373 1.269734
						}
					}
				}
				JOINT l_clavicle_dup
				{
					OFFSET -0.218957 18.933075 -0.472811
					CHANNELS 3 Zrotation Yrotation Xrotation
					JOINT l_shoulder_dup
					{
						OFFSET 15.116303 0.000000 -0.000000
						CHANNELS 3 Zrotation Yrotation Xrotation
						JOINT l_elbow_dup
						{
							OFFSET 31.792093 -0.000705 2.844168
							CHANNELS 3 Zrotation Yrotation Xrotation
							JOINT l_hand_dup
							{
								OFFSET 36.413383 0.000008 6.432686
								CHANNELS 3 Zrotation Yrotation Xrotation
								End l_hand_End_dup
								{
									OFFSET 12.171074 0.250001 2.146094
								}
							}
						}
					}
				}
				JOINT r_clavicle_dup
				{
					OFFSET -0.218957 18.933075 -0.472811
					CHANNELS 3 Zrotation Yrotation Xrotation
					JOINT r_shoulder_dup
					{
						OFFSET -14.846962 0.000000 -0.000000
						CHANNELS 3 Zrotation Yrotation Xrotation
						JOINT r_elbow_dup
						{
							OFFSET -32.849064 0.001004 2.810032
							CHANNELS 3 Zrotation Yrotation Xrotation
							JOINT r_hand_dup
							{
								OFFSET -33.618532 -0.000010 5.917088
								CHANNELS 3 Zrotation Yrotation Xrotation
								End r_hand_End_dup
								{
									OFFSET -12.660150 0.250000 2.232319
								}
							}
						}
					}
				}
			}
		}
	}
}
MOTION
Frames: 21
Frame Time: 0.041667
97.812	106.606	4.769	0.277	2.158	-2.392	0.000	-0.000	0.000	-1.201	25.921	-13.645	0.624	1.734	35.738	0.043	11.010	-17.221	0.014	-0.410	-7.822	0.000	-0.000	0.000	4.078	-10.743	-5.674	-0.395	-1.392	27.869	-0.029	-16.202	-17.037	-0.041	0.406	-7.784	0.000	0.000	0.000	-0.092	1.714	4.290	-3.472	1.116	8.375	3.276	-13.915	5.781	14.729	-13.538	-2.321	2.908	-3.015	-0.158	-70.392	2.299	14.706	-1.085	-33.798	-4.466	-13.338	7.091	0.725	5.020	4.408	0.378	69.824	-5.369	13.007	3.074	28.079	-14.299	8.839	-4.811	0.802
97.617	106.528	3.942	0.501	2.607	-2.688	0.000	-0.000	0.000	-0.982	25.733	-15.162	0.711	1.843	38.399	0.044	9.345	-16.036	0.015	-0.414	-7.901	0.000	-0.000	0.000	3.916	-11.479	-6.062	-0.408	-1.415	28.375	-0.042	-15.793	-17.406	-0.039	0.395	-7.585	0.000	0.000	0.000	0.173	2.084	5.013	-3.146	1.297	8.801	3.285	-13.424	5.634	14.406	-12.949	-3.088	3.384	-3.555	-0.216	-71.658	1.813	13.597	-1.235	-35.408	-4.946	-12.831	6.435	0.848	4.629	4.701	0.372	69.773	-4.810	12.531	2.951	27.708	-13.783	9.392	-4.542	0.899
97.567	106.456	3.447	0.475	2.160	-2.946	0.000	-0.000	0.000	0.620	23.980	-16.015	0.789	1.930	40.625	0.054	4.267	-13.967	0.019	-0.450	-8.589	0.000	-0.000	0.000	3.943	-11.328	-6.265	-0.418	-1.431	28.735	-0.049	-15.429	-17.535	-0.037	0.380	-7.288	0.000	0.000	0.000	0.434	2.572	5.208	-3.240	1.557	8.866	4.113	-12.258	6.530	13.776	-11.830	-1.919	3.930	-3.657	-0.258	-72.417	2.380	12.657	-1.507	-35.052	-6.079	-12.136	6.780	0.725	4.821	4.946	0.408	69.905	-4.691	12.635	2.419	26.177	-11.474	9.816	-3.729	1.082
98.158	106.380	3.306	0.139	0.833	-3.353	0.000	-0.000	0.000	4.114	15.011	-13.027	0.702	1.832	38.130	0.083	-2.043	-15.573	0.004	-0.291	-5.559	0.000	-0.000	0.000	3.897	-10.438	-6.102	-0.423	-1.440	28.939	-0.051	-15.081	-17.326	-0.038	0.386	-7.399	0.000	0.000	0.000	1.085	2.540	4.508	-3.003	1.538	9.101	4.613	-10.862	8.465	12.508	-10.477	-0.352	3.784	-3.428	-0.233	-73.418	4.434	12.506	-1.192	-30.694	-5.155	-10.806	6.617	0.675	4.436	4.756	0.361	69.590	-4.585	14.036	1.777	23.876	-8.637	9.545	-2.431	1.271
99.409	106.349	3.581	-0.181	-0.575	-3.745	0.000	-0.000	0.000	5.508	6.905	-8.082	0.516	1.586	32.230	0.090	1.906	-16.363	0.034	-0.561	-10.725	0.000	-0.000	0.000	3.463	-9.424	-5.698	-0.424	-1.441	28.954	-0.048	-14.612	-16.743	-0.042	0.413	-7.924	0.000	0.000	0.000	0.973	1.420	3.603	-2.092	0.894	9.104	5.225	-9.800	7.488	9.589	-9.605	1.921	2.974	-2.680	-0.144	-73.699	5.337	17.747	-0.326	-21.678	-1.579	-12.583	7.010	0.700	4.180	3.684	0.262	68.408	-4.522	16.256	2.470	23.750	-12.080	8.428	-3.737	0.925
100.577	106.384	3.831	-0.342	-1.250	-3.997	0.000	-0.000	0.000	5.394	8.782	-7.030	0.473	1.521	30.755	0.096	0.097	-16.595	0.030	-0.533	-10.192	0.000	-0.000	0.000	2.945	-8.986	-5.302	-0.417	-1.430	28.718	-0.042	-14.367	-16.185	-0.046	0.433	-8.306	0.000	0.000	0.000	0.587	0.825	3.125	-2.275	0.603	9.171	6.816	-9.114	6.270	8.638	-8.927	2.556	3.397	-2.904	-0.178	-73.434	6.076	21.674	0.642	-18.283	3.223	-16.645	9.346	0.229	4.551	3.721	0.288	69.168	-5.210	14.096	2.949	23.653	-14.498	8.284	-4.871	0.742
102.752	106.500	3.986	-0.511	-1.806	-4.202	0.000	-0.000	0.000	4.348	9.793	-6.773	0.474	1.522	30.766	0.102	0.345	-17.083	0.020	-0.462	-8.828	0.000	-0.000	0.000	1.866	-8.727	-4.813	-0.397	-1.395	27.949	-0.025	-14.276	-15.000	-0.058	0.496	-9.543	0.000	0.000	0.000	0.258	0.860	2.653	-2.281	0.613	9.046	7.334	-7.540	5.067	8.783	-7.337	1.539	3.700	-3.521	-0.234	-72.700	6.477	24.945	2.582	-19.191	12.981	-20.288	6.344	1.410	4.483	4.681	0.359	70.588	-8.050	11.032	3.460	24.581	-16.915	6.128	-5.749	0.452
104.246	106.580	3.792	-0.678	-2.454	-4.242	0.000	-0.000	0.000	3.694	10.742	-6.995	0.489	1.544	31.287	0.111	0.456	-17.709	0.013	-0.393	-7.511	0.000	-0.000	0.000	1.225	-8.265	-4.734	-0.381	-1.367	27.338	-0.013	-14.193	-14.097	-0.062	0.517	-9.941	0.000	0.000	0.000	0.077	1.284	2.806	-2.283	0.816	8.686	7.189	-5.747	4.751	7.826	-5.528	1.130	3.310	-3.513	-0.209	-71.791	6.406	24.648	1.768	-22.703	8.517	-16.799	6.305	1.163	4.380	5.141	0.386	70.642	-9.218	13.739	2.996	24.072	-14.665	6.362	-4.403	0.621
105.670	106.651	3.412	-0.946	-3.526	-4.263	0.000	-0.000	0.000	3.263	12.083	-7.326	0.500	1.562	31.687	0.115	0.381	-17.953	0.007	-0.333	-6.351	0.000	-0.000	0.000	0.750	-7.392	-4.685	-0.360	-1.328	26.484	-0.004	-14.011	-13.237	-0.065	0.530	-10.191	0.000	0.000	0.000	-0.192	2.147	3.392	-2.847	1.280	8.375	8.325	-3.779	4.869	5.990	-3.446	0.437	3.492	-3.339	-0.210	-70.902	5.334	22.617	0.321	-25.496	1.487	-13.530	6.441	0.894	4.516	4.472	0.345	71.106	-8.881	17.211	2.990	23.687	-14.700	8.692	-5.510	0.681
107.508	106.801	2.382	-1.666	-5.930	-4.407	0.000	-0.000	0.000	3.194	14.821	-7.730	0.516	1.586	32.237	0.118	0.200	-18.154	0.003	-0.273	-5.209	0.000	-0.000	0.000	0.704	-5.367	-4.584	-0.310	-1.233	24.429	0.016	-13.406	-10.990	-0.064	0.524	-10.080	0.000	0.000	0.000	-0.615	3.294	5.645	-3.799	1.892	7.972	9.555	-0.659	3.441	2.631	-0.421	1.996	4.036	-2.207	-0.163	-69.792	1.770	20.558	-0.842	-26.722	-3.845	-10.788	4.978	0.990	5.026	3.358	0.286	71.745	-7.285	20.556	2.967	25.190	-14.321	10.528	-7.287	0.493
109.166	107.026	0.597	-2.510	-9.266	-3.881	0.000	-0.000	0.000	3.224	18.472	-8.944	0.522	1.594	32.426	0.113	-0.045	-17.798	0.001	-0.226	-4.306	0.000	-0.000	0.000	1.021	-2.366	-6.746	-0.310	-1.232	24.423	0.040	-12.939	-7.986	-0.068	0.543	-10.444	0.000	0.000	0.000	-1.300	3.543	8.812	-4.398	1.998	7.721	9.307	2.694	3.963	-0.116	2.999	1.058	4.547	-3.432	-0.281	-69.033	0.183	17.128	-1.336	-28.929	-5.932	-9.473	6.299	0.644	4.588	4.948	0.389	72.499	-6.393	18.911	2.127	29.437	-9.632	8.786	-3.720	0.968
109.916	107.187	-0.992	-3.143	-11.904	-2.989	0.000	-0.000	0.000	3.305	21.302	-10.395	0.524	1.597	32.492	0.106	-0.197	-17.336	-0.000	-0.195	-3.726	0.000	-0.000	0.000	1.411	0.075	-9.582	-0.331	-1.273	25.296	0.061	-12.690	-4.506	-0.078	0.588	-11.325	0.000	0.000	0.000	-2.261	3.803	11.159	-4.336	2.040	7.657	9.187	3.785	5.851	-1.741	4.215	-0.697	4.461	-4.354	-0.347	-67.704	-0.665	15.887	-1.414	-30.658	-6.125	-9.873	7.875	0.393	4.601	5.435	0.429	72.398	-4.812	17.682	2.870	32.869	-12.396	8.652	-4.529	0.829
110.911	107.312	-3.464	-3.476	-14.684	-1.273	0.000	-0.000	0.000	2.373	24.392	-13.431	0.528	1.603	32.635	0.095	-0.321	-16.460	-0.001	-0.158	-3.021	0.000	-0.000	0.000	0.710	2.561	-13.152	-0.326	-1.264	25.089	0.031	-8.312	-0.778	-0.073	0.566	-10.908	0.000	0.000	0.000	-3.868	3.808	14.641	-4.029	1.845	7.630	6.448	4.075	10.629	-2.653	4.663	3.209	5.737	-4.085	-0.420	-66.058	-2.460	19.454	-1.343	-33.900	-5.522	-9.026	7.002	0.500	3.567	5.524	0.338	71.994	-2.479	18.264	3.859	37.572	-15.466	8.558	-5.267	0.707
111.178	107.316	-4.886	-3.195	-14.720	-0.221	0.000	-0.000	0.000	1.263	24.603	-15.542	0.527	1.602	32.615	0.086	-0.386	-15.819	-0.001	-0.135	-2.581	0.000	-0.000	0.000	-0.008	2.306	-14.245	-0.305	-1.222	24.199	0.012	-6.901	-3.459	-0.061	0.510	-9.811	0.000	0.000	0.000	-4.462	3.832	16.987	-4.015	1.769	8.233	4.357	3.446	17.079	-3.939	4.062	3.740	6.273	-4.364	-0.490	-63.918	-3.966	23.363	-1.342	-37.757	-5.146	-7.592	5.605	0.608	3.443	4.478	0.263	71.577	-0.864	18.974	3.624	39.690	-13.886	8.674	-4.272	0.870
111.123	107.274	-6.320	-2.674	-13.498	0.894	0.000	-0.000	0.000	0.031	23.493	-17.900	0.521	1.593	32.409	0.072	-0.512	-14.607	-0.002	-0.127	-2.421	0.000	-0.000	0.000	-0.567	0.691	-13.897	-0.236	-1.072	21.056	0.015	-8.743	-5.489	-0.073	0.567	-10.927	0.000	0.000	0.000	-4.566	3.883	19.892	-4.206	1.750	9.027	2.536	2.116	24.352	-5.765	2.601	3.236	7.241	-4.939	-0.639	-62.640	-5.225	24.961	-2.137	-43.455	-7.274	-7.391	4.511	0.735	3.812	3.233	0.209	71.141	0.822	19.624	4.116	41.793	-15.137	8.075	-4.086	0.836
110.682	107.202	-9.227	-1.870	-11.058	3.180	0.000	-0.000	0.000	-1.898	21.101	-22.104	0.504	1.567	31.807	0.055	-0.333	-13.024	-0.002	-0.104	-1.981	0.000	-0.000	0.000	-0.564	-2.274	-16.357	-0.179	-0.927	18.087	0.046	-9.916	-0.466	-0.067	0.539	-10.381	0.000	0.000	0.000	-3.595	3.843	26.747	-4.038	1.664	9.373	-1.125	1.244	31.312	-5.358	0.961	4.726	8.911	-5.221	-0.833	-61.880	-6.537	27.141	-4.202	-54.650	-10.351	-6.469	1.765	0.957	2.853	3.710	0.180	70.329	2.599	20.712	4.875	44.707	-16.852	5.028	-3.235	0.594
109.937	106.738	-12.804	-1.266	-8.930	7.792	0.000	-0.000	0.000	-4.013	18.712	-29.545	0.516	1.585	32.228	0.038	-0.342	-11.244	-0.002	-0.118	-2.248	0.000	-0.000	0.000	0.190	-4.701	-24.485	-0.234	-1.066	20.936	0.045	-9.697	0.161	-0.052	0.466	-8.949	0.000	0.000	0.000	-2.281	3.463	34.280	-4.781	1.557	8.956	-1.048	1.128	31.167	-4.249	0.909	5.660	9.708	-4.992	-0.870	-58.657	-7.443	30.321	-7.266	-63.877	-11.717	-4.465	-6.793	1.320	2.686	3.982	0.182	68.275	4.225	22.323	2.624	50.550	-7.571	-2.925	-0.907	-0.464
109.249	106.272	-15.454	-1.395	-7.857	12.171	0.000	-0.000	0.000	-5.322	18.170	-36.352	0.540	1.620	33.037	0.026	-1.267	-9.802	-0.001	-0.137	-2.614	0.000	-0.000	0.000	1.634	-5.736	-31.084	-0.262	-1.131	22.278	0.042	-9.326	1.040	-0.052	0.464	-8.918	0.000	0.000	0.000	-1.170	3.004	38.958	-4.999	1.437	8.285	0.026	0.706	29.781	-4.669	0.798	4.567	10.496	-5.671	-1.067	-56.440	-7.953	31.772	-7.455	-67.772	-9.108	-1.901	-15.980	0.849	1.543	4.515	0.119	66.980	5.023	21.892	2.923	57.430	-6.588	-8.071	1.295	-1.601
108.208	105.361	-19.183	-1.898	-6.621	20.519	0.000	-0.000	0.000	-8.384	18.588	-48.835	0.593	1.694	34.764	0.009	-3.880	-7.952	-0.002	-0.104	-1.975	0.000	-0.000	0.000	4.459	-6.291	-42.659	-0.312	-1.237	24.526	0.039	-8.934	1.730	-0.043	0.418	-8.024	0.000	0.000	0.000	0.217	1.337	44.415	-4.250	0.766	7.095	-1.673	1.566	29.855	-3.119	1.039	1.468	8.797	-5.636	-0.886	-51.423	-9.185	32.741	-9.117	-74.153	-5.295	3.267	-24.902	-1.905	0.442	6.028	0.046	61.713	6.085	20.832	-0.428	68.247	0.511	-11.715	8.023	-3.710
107.595	104.536	-21.165	-2.303	-6.220	26.757	0.000	-0.000	0.000	-11.208	19.041	-58.143	0.655	1.774	36.703	-0.003	-5.833	-7.256	-0.001	-0.042	-0.800	0.000	-0.000	0.000	6.674	-6.257	-51.230	-0.372	-1.351	26.982	0.033	-8.244	1.124	-0.037	0.378	-7.242	0.000	0.000	0.000	0.766	0.655	46.616	-3.466	0.492	6.910	-2.454	2.077	29.475	-1.460	1.295	1.092	8.817	-4.910	-0.776	-49.100	-10.036	32.833	-12.278	-79.197	-0.873	5.684	-29.057	-3.654	-1.333	6.551	-0.150	59.008	5.846	21.161	-1.819	77.260	0.525	-15.805	13.111	-6.426
107.092	103.382	-22.755	-2.780	-6.053	32.527	0.000	-0.000	0.000	-14.157	19.327	-67.419	0.762	1.901	39.861	-0.014	-7.711	-7.252	0.002	0.046	0.872	0.000	-0.000	0.000	10.281	-7.238	-60.045	-0.472	-1.519	30.706	0.014	-5.542	-0.132	-0.026	0.307	-5.885	0.000	0.000	0.000	1.295	0.452	48.300	-3.031	0.457	6.614	-2.443	2.134	28.938	-0.956	1.350	1.068	8.908	-5.253	-0.838	-46.277	-8.532	32.206	-29.578	-85.272	16.280	7.209	-34.016	-5.115	-1.977	7.014	-0.238	56.156	3.673	22.374	3.803	85.865	2.223	-17.934	17.376	-8.597
